<?xml version="1.0" encoding="UTF-8"?>
<svg width="512" height="512" viewBox="0 0 512 512" fill="none" xmlns="http://www.w3.org/2000/svg">
  <!-- Main Pokédex body -->
  <rect width="512" height="512" rx="40" fill="#E61515"/>
  <rect x="20" y="20" width="472" height="472" rx="30" fill="#CE1010"/>
  
  <!-- Top lights -->
  <circle cx="80" cy="80" r="30" fill="#29AADE"/>
  <circle cx="80" cy="80" r="20" fill="#85C5E5"/>
  <circle cx="80" cy="80" r="10" fill="white"/>
  
  <circle cx="150" cy="80" r="15" fill="#FF5959"/>
  <circle cx="200" cy="80" r="15" fill="#FFFF42"/>
  <circle cx="250" cy="80" r="15" fill="#41FF41"/>
  
  <!-- Center divider -->
  <rect x="20" y="250" width="472" height="12" fill="#222222"/>
  
  <!-- Pokéball center -->
  <circle cx="256" cy="256" r="100" fill="white"/>
  <circle cx="256" cy="256" r="80" fill="#F5F5F5"/>
  <circle cx="256" cy="256" r="60" fill="#E61515"/>
  <circle cx="256" cy="256" r="40" fill="#CE1010"/>
  <circle cx="256" cy="256" r="25" fill="white"/>
  <circle cx="256" cy="256" r="15" fill="#222222"/>
  
  <!-- D-pad -->
  <rect x="80" y="350" width="80" height="20" rx="5" fill="#222222"/>
  <rect x="110" y="320" width="20" height="80" rx="5" fill="#222222"/>
  
  <!-- Buttons -->
  <circle cx="400" cy="350" r="20" fill="#222222"/>
  <circle cx="350" cy="380" r="20" fill="#222222"/>
</svg>
